<svg width="32" height="32" fill="none" xmlns="http://www.w3.org/2000/svg"><path d="M30.282 29.458v-8.942a4.692 4.692 0 001.697-3.613v-2.117L16.938 6.415V5.208h5.414V0h-7.29v6.415L0 14.785v2.118c0 1.461.67 2.768 1.719 3.631v8.924H0v1.875h32v-1.875h-1.718zM16.938 1.875h3.54v1.458h-3.54V1.875zm12.32 13.542h-5.095L19.5 9.987l9.757 5.43zm-12.331-5.55l4.765 5.55h-4.765v-5.55zm5.624 7.425a2.83 2.83 0 01-2.799 2.437 2.83 2.83 0 01-2.799-2.437h5.598zm-12.246-1.875l4.747-5.544v5.544h-4.747zm4.72 1.875a2.83 2.83 0 01-2.799 2.437 2.83 2.83 0 01-2.799-2.437h5.598zm-2.547-7.296l-4.642 5.42H2.723l9.755-5.42zM1.902 17.293h5.597A2.83 2.83 0 014.7 19.729a2.83 2.83 0 01-2.798-2.437zm5.697 12.166H3.594V21.47a4.691 4.691 0 004.87-1.754 4.696 4.696 0 006.39 1.082 11.084 11.084 0 01-1.183 3.24 11.091 11.091 0 01-3.826 4.02L7.6 29.459zm3.537 0A12.896 12.896 0 0016 23.499c.2.496.43.981.69 1.45a12.972 12.972 0 004.175 4.509h-9.729zm17.271 0h-4.005l-2.247-1.398a11.091 11.091 0 01-3.825-4.021 11.08 11.08 0 01-1.18-3.224 4.696 4.696 0 006.365-1.098 4.696 4.696 0 004.892 1.749v7.992zm-1.129-9.73a2.83 2.83 0 01-2.799-2.436h5.598a2.83 2.83 0 01-2.799 2.437z" fill="#10375C"/></svg>